<svg width="377" height="123" viewBox="0 0 377 123" fill="none" xmlns="http://www.w3.org/2000/svg">
<path d="M144.889 0.954793C143.448 1.13014 141.78 1.84345 141.173 3.27148C141.018 3.65707 140.946 4.05315 140.959 4.49319L143.166 120.727C143.183 120.742 143.185 120.775 143.17 120.792C143.358 122.397 146.026 122.009 146.081 120.618L147.667 67.3865L147.738 65.2432L149.538 4.35633C149.536 4.32449 149.551 4.30672 149.549 4.27417C149.402 1.78621 147.144 0.725268 144.889 0.954793Z" fill="#4E60FF"/>
<path d="M205.681 3.93129C205.506 2.48994 204.792 0.822733 203.364 0.215192C202.979 0.0600433 202.583 -0.0114215 202.143 0.00148001L85.9088 2.20805C85.8939 2.22502 85.8611 2.22771 85.8438 2.21255C84.2392 2.40052 84.6265 5.06807 86.018 5.12344L139.249 6.7091L141.393 6.78052L202.28 8.58023C202.311 8.57814 202.329 8.59372 202.362 8.59082C204.85 8.44422 205.911 6.18613 205.681 3.93129Z" fill="#4E60FF"/>
<path d="M5.63428 72.3825C5.03547 72.3825 4.43666 72.4098 3.83784 72.4642C3.23903 72.5186 2.55856 72.6003 1.79644 72.7092L1.22484 70.4228L4.49109 69.3613C4.76328 69.2524 4.92659 69.1979 4.98103 69.1979C5.08991 69.1979 5.33488 69.1435 5.71594 69.0346C5.82481 65.6051 6.20588 61.7672 6.85913 57.5211C7.56681 53.275 8.95497 48.2123 11.0236 42.333L13.2283 42.7413C13.1739 43.7756 13.1194 45.0005 13.065 46.4158C13.065 47.7768 13.065 49.2466 13.065 50.8253C13.065 53.275 13.065 55.7791 13.065 58.3377C13.1194 60.8418 13.2828 63.8358 13.5549 67.3198C16.2768 66.9388 19.0259 66.6666 21.8022 66.5033C24.5785 66.2855 27.3548 66.1767 30.1312 66.1767C30.7844 66.1767 31.2471 66.1767 31.5193 66.1767C31.8459 66.1222 32.3359 66.1222 32.9891 66.1767C33.2613 62.2572 33.7785 58.3377 34.5406 54.4182C35.3027 50.4442 36.3098 46.7153 37.5619 43.2313L39.7666 43.7212C39.44 47.0963 39.2767 50.7164 39.2767 54.5815C39.2767 56.7045 39.3039 58.6643 39.3583 60.4607C39.4672 62.2572 39.6033 64.2986 39.7666 66.5849C41.0187 66.6938 42.2707 66.8299 43.5228 66.9932C44.8293 67.1021 46.2174 67.2926 47.6873 67.5648L44.666 76.547C43.9038 76.2748 43.2234 76.0571 42.6246 75.8938C42.0258 75.676 41.2908 75.4583 40.4198 75.2405C40.7465 78.0168 41.1548 80.8203 41.6447 83.6511C42.1346 86.4818 42.679 89.367 43.2778 92.3067L33.3158 93.9398C33.0436 91.109 32.8258 88.3599 32.6625 85.6925C32.5536 82.9706 32.4992 80.3032 32.4992 77.6902C32.4992 76.7648 32.472 76.0571 32.4175 75.5671C32.4175 75.0228 32.4448 74.2878 32.4992 73.3624C30.0495 72.8725 27.6543 72.5458 25.3134 72.3825C23.0271 72.2192 21.0129 72.0831 19.2709 71.9743C18.8354 71.9743 18.2638 71.9743 17.5561 71.9743C16.9028 71.9198 16.3585 71.8926 15.923 71.8926C15.3786 71.8926 15.052 71.9198 14.9431 71.9743C14.8342 71.9743 14.5076 71.9743 13.9632 71.9743C14.2354 74.9139 14.5893 77.9624 15.0248 81.1198C15.4603 84.2771 15.9774 87.7339 16.5762 91.4901L7.26741 95.3279C6.66859 91.9528 6.26031 88.5777 6.04256 85.2026C5.82481 81.8274 5.68872 78.0985 5.63428 74.0157V72.3825ZM69.8716 93.8581C69.5994 90.8641 69.3817 87.7611 69.2183 84.5493C69.055 81.2831 68.9734 77.9896 68.9734 74.6689C68.9734 69.5518 69.2728 64.3802 69.8716 59.1542C70.4704 53.8738 71.6408 48.5933 73.3828 43.3129L75.5875 43.8028C75.5331 44.6738 75.5059 45.5993 75.5059 46.5792C75.5059 47.5046 75.5059 48.4845 75.5059 49.5188C75.5059 54.7992 75.8325 61.0868 76.4858 68.3814C77.139 75.6216 78.3638 83.6239 80.1603 92.3883L69.8716 93.8581Z" fill="#222222"/>
<path d="M209.241 93.5871L210.058 89.096C210.602 86.7552 211.174 84.3055 211.772 81.747C212.426 79.134 213.079 76.7932 213.732 74.7245C211.663 74.2346 209.704 73.5269 207.853 72.6015L208.669 70.3151C209.976 70.6417 211.092 70.8867 212.017 71.05C212.997 71.1589 214.004 71.2405 215.039 71.295C215.91 69.2808 216.835 67.2122 217.815 65.0891C218.849 62.9116 219.884 60.8157 220.918 58.8016C221.952 56.7329 222.986 54.7732 224.021 52.9223C225.11 51.017 226.198 49.3294 227.287 47.8596C226.688 46.4442 226.198 45.3555 225.817 44.5934C225.436 43.7768 225.11 43.0691 224.837 42.4703L224.919 42.552C224.538 41.9532 224.266 41.4088 224.102 40.9188L226.062 39.6123C226.661 40.3745 227.151 40.9733 227.532 41.4088C227.913 41.8443 228.294 42.2526 228.675 42.6336L230.227 44.2667C230.662 43.7224 231.043 43.2869 231.37 42.9602C231.751 42.5792 232.159 42.1709 232.595 41.7354C232.921 41.4088 233.275 41.0822 233.656 40.7555C234.092 40.3745 234.473 39.9662 234.799 39.5307L236.596 41.0005L235.861 42.3887C235.262 43.3141 234.745 44.1579 234.309 44.92C233.874 45.6277 233.357 46.6076 232.758 47.8596C234.228 50.2549 235.643 52.8951 237.004 55.7803C238.42 58.611 239.672 61.2785 240.76 63.7826C241.141 64.708 241.414 65.4157 241.577 65.9057C241.795 66.3956 242.094 67.0216 242.475 67.7837C243.945 67.5116 245.442 67.2394 246.966 66.9672C248.545 66.695 250.477 66.4772 252.764 66.3139L248.599 75.3778L245.986 75.5411C246.748 77.773 247.374 80.005 247.864 82.2369C248.354 84.4688 248.735 86.2381 249.008 87.5446L249.498 89.8309L239.454 94.9753C239.073 92.0357 238.61 88.8238 238.066 85.3398C237.521 81.8558 236.895 78.644 236.188 75.7044C234.99 75.7588 233.602 75.8133 232.023 75.8677C230.444 75.8677 229.029 75.8677 227.777 75.8677C226.688 75.8677 225.79 75.8677 225.082 75.8677C224.375 75.8677 223.613 75.8405 222.796 75.7861C222.524 77.0381 222.252 78.3991 221.979 79.8689C221.762 81.3387 221.544 82.8357 221.326 84.36C221.108 85.8842 220.891 87.4085 220.673 88.9327C220.51 90.4025 220.346 91.7362 220.183 92.9339L209.241 93.5871ZM234.391 69.2536C233.738 66.7494 233.003 64.2181 232.186 61.6595C231.37 59.0465 230.581 56.6513 229.818 54.4738C228.784 56.9235 227.75 59.5909 226.715 62.4761C225.681 65.3613 224.783 68.1376 224.021 70.805C225.763 70.5873 227.505 70.3423 229.247 70.0701C231.043 69.7979 232.758 69.5257 234.391 69.2536ZM288.809 70.2334C287.721 71.7577 286.605 73.2003 285.461 74.5612C284.318 75.9222 283.121 77.2559 281.868 78.5624C282.195 80.2499 282.576 82.1008 283.012 84.115C283.502 86.1292 284.019 88.1978 284.563 90.3209C283.964 90.7564 282.767 91.2735 280.97 91.8723C279.174 92.4167 276.806 93.0427 273.866 93.7504L273.54 86.0747L272.233 87.0546L270.682 85.1765C271.389 84.36 272.043 83.5434 272.641 82.7268L273.376 81.9919C273.322 80.6854 273.267 79.3789 273.213 78.0724C273.213 76.7659 273.213 75.405 273.213 73.9896C273.213 69.3624 273.431 64.4086 273.866 59.1282C274.356 53.7933 275.282 47.8596 276.642 41.3271L278.929 41.5721C278.929 43.6407 278.929 45.4916 278.929 47.1247C278.983 48.7034 279.038 50.2004 279.092 51.6158C279.147 52.9767 279.201 54.3105 279.255 55.617C279.31 56.9235 279.392 58.3388 279.5 59.8631C279.555 60.7341 279.582 61.5507 279.582 62.3128C279.637 63.0205 279.691 63.8098 279.745 64.6808C279.854 65.5518 279.99 66.5589 280.154 67.7021C280.317 68.7908 280.535 70.1246 280.807 71.7032C281.569 70.5601 282.277 69.4169 282.93 68.2737C283.638 67.0761 284.345 65.8512 285.053 64.5992C284.618 64.0003 284.182 63.456 283.747 62.966C283.366 62.4217 282.984 61.9045 282.603 61.4146L281.868 60.2714L283.257 58.9649C283.964 59.4004 284.563 59.7814 285.053 60.1081C285.597 60.3802 286.223 60.7885 286.931 61.3329C288.51 58.5022 289.844 55.7258 290.932 53.004C292.021 50.2277 293.028 47.4513 293.954 44.675C294.716 44.5117 295.614 44.3212 296.648 44.1034C297.737 43.8312 298.826 43.5591 299.915 43.2869C301.058 43.0147 302.146 42.7697 303.181 42.552C304.27 42.2798 305.195 42.0348 305.957 41.8171C304.596 44.7567 303.29 47.4241 302.038 49.8194C300.84 52.1602 299.67 54.3105 298.526 56.2702C297.383 58.1755 296.267 59.9175 295.178 61.4962C294.144 63.0749 293.137 64.5447 292.157 65.9057C295.859 69.3352 299.125 73.0914 301.956 77.1742C304.787 81.2026 307.372 85.5848 309.713 90.3209C309.06 90.6475 308.271 91.0286 307.345 91.4641C306.42 91.8451 305.467 92.2534 304.487 92.6889C303.562 93.1244 302.636 93.5599 301.711 93.9954C300.786 94.3765 299.969 94.7031 299.261 94.9753C297.9 89.6404 296.294 84.9588 294.444 80.9304C292.593 76.902 290.715 73.3364 288.809 70.2334ZM329.859 93.5871L330.676 89.096C331.22 86.7552 331.792 84.3055 332.391 81.747C333.044 79.134 333.697 76.7932 334.35 74.7245C332.282 74.2346 330.322 73.5269 328.471 72.6015L329.288 70.3151C330.594 70.6417 331.71 70.8867 332.636 71.05C333.616 71.1589 334.623 71.2405 335.657 71.295C336.528 69.2808 337.453 67.2122 338.433 65.0891C339.468 62.9116 340.502 60.8157 341.536 58.8016C342.571 56.7329 343.605 54.7732 344.639 52.9223C345.728 51.017 346.817 49.3294 347.905 47.8596C347.307 46.4442 346.817 45.3555 346.436 44.5934C346.055 43.7768 345.728 43.0691 345.456 42.4703L345.537 42.552C345.156 41.9532 344.884 41.4088 344.721 40.9188L346.681 39.6123C347.279 40.3745 347.769 40.9733 348.15 41.4088C348.531 41.8443 348.913 42.2526 349.294 42.6336L350.845 44.2667C351.281 43.7224 351.662 43.2869 351.988 42.9602C352.369 42.5792 352.778 42.1709 353.213 41.7354C353.54 41.4088 353.894 41.0822 354.275 40.7555C354.71 40.3745 355.091 39.9662 355.418 39.5307L357.214 41.0005L356.479 42.3887C355.881 43.3141 355.363 44.1579 354.928 44.92C354.492 45.6277 353.975 46.6076 353.376 47.8596C354.846 50.2549 356.262 52.8951 357.623 55.7803C359.038 58.611 360.29 61.2785 361.379 63.7826C361.76 64.708 362.032 65.4157 362.195 65.9057C362.413 66.3956 362.712 67.0216 363.093 67.7837C364.563 67.5116 366.06 67.2394 367.585 66.9672C369.163 66.695 371.096 66.4772 373.382 66.3139L369.218 75.3778L366.605 75.5411C367.367 77.773 367.993 80.005 368.483 82.2369C368.973 84.4688 369.354 86.2381 369.626 87.5446L370.116 89.8309L360.072 94.9753C359.691 92.0357 359.228 88.8238 358.684 85.3398C358.14 81.8558 357.514 78.644 356.806 75.7044C355.608 75.7588 354.22 75.8133 352.641 75.8677C351.063 75.8677 349.647 75.8677 348.395 75.8677C347.307 75.8677 346.408 75.8677 345.701 75.8677C344.993 75.8677 344.231 75.8405 343.414 75.7861C343.142 77.0381 342.87 78.3991 342.598 79.8689C342.38 81.3387 342.162 82.8357 341.945 84.36C341.727 85.8842 341.509 87.4085 341.291 88.9327C341.128 90.4025 340.965 91.7362 340.801 92.9339L329.859 93.5871ZM355.01 69.2536C354.356 66.7494 353.621 64.2181 352.805 61.6595C351.988 59.0465 351.199 56.6513 350.437 54.4738C349.402 56.9235 348.368 59.5909 347.334 62.4761C346.3 65.3613 345.401 68.1376 344.639 70.805C346.381 70.5873 348.123 70.3423 349.865 70.0701C351.662 69.7979 353.376 69.5257 355.01 69.2536Z" fill="#222222"/>
</svg>
