<svg width="109" height="109" viewBox="0 0 109 109" fill="none" xmlns="http://www.w3.org/2000/svg">
<path d="M54.1148 44.5778L53.262 45.2906L52.4675 45.9452L52.0936 46.2493L51.7549 46.5299L51.1123 47.0679L43.8222 69.9306C43.8222 69.9426 43.8104 69.966 43.8104 69.9775C43.6352 70.7726 44.9904 71.0179 45.2358 70.3633L55.1899 43.7014L54.6057 44.1805L54.1148 44.5778Z" fill="#222222"/>
<path d="M57.4795 35.5777L57.7716 35.3085L58.449 34.6893L58.6011 34.5607L65.8681 15.0753C65.8796 15.0639 65.8796 15.0519 65.8796 15.0405C66.2185 13.8251 65.3073 12.9482 64.1857 12.691C63.4728 12.5275 62.5501 12.6092 62.0242 13.194C61.8842 13.3455 61.7904 13.5324 61.7321 13.7428L53.6592 39.0608L53.6942 39.0259L54.3719 38.4062L54.6874 38.1261L55.0727 37.7751L56.1944 36.7467L56.1949 36.7462L57.4795 35.5777Z" fill="#222222"/>
<path d="M77.3055 21.3057C76.7566 20.8147 75.9272 20.4174 75.1794 20.6632C74.9805 20.7329 74.8055 20.8381 74.642 20.9902L55.669 38.2776L31.0526 60.6967C31.0526 60.7081 31.0409 60.7201 31.0293 60.7201C30.4802 61.3283 31.5198 62.2162 32.069 61.772L52.8997 44.5778L53.741 43.8883L77.5627 24.216C77.5741 24.2046 77.5861 24.2046 77.5976 24.1926C78.4974 23.3048 78.1469 22.0889 77.3055 21.3057Z" fill="#222222"/>
<path d="M22.052 84.8328C21.9547 84.8328 21.8575 84.8373 21.7602 84.8461C21.663 84.8549 21.5525 84.8682 21.4287 84.8859L21.3358 84.5145L21.8663 84.3421C21.9105 84.3245 21.9371 84.3156 21.9459 84.3156C21.9636 84.3156 22.0034 84.3068 22.0653 84.2891C22.083 83.7321 22.1448 83.1087 22.2509 82.4191C22.3659 81.7295 22.5913 80.9072 22.9273 79.9523L23.2854 80.0186C23.2766 80.1866 23.2677 80.3855 23.2589 80.6154C23.2589 80.8365 23.2589 81.0752 23.2589 81.3316C23.2589 81.7295 23.2589 82.1362 23.2589 82.5517C23.2677 82.9584 23.2942 83.4447 23.3385 84.0106C23.7805 83.9487 24.227 83.9045 24.678 83.878C25.1289 83.8426 25.5798 83.8249 26.0307 83.8249C26.1368 83.8249 26.212 83.8249 26.2562 83.8249C26.3092 83.8161 26.3888 83.8161 26.4949 83.8249C26.5391 83.1883 26.6231 82.5517 26.7469 81.9151C26.8707 81.2697 27.0342 80.664 27.2376 80.0982L27.5957 80.1778C27.5426 80.7259 27.5161 81.3139 27.5161 81.9416C27.5161 82.2865 27.5205 82.6048 27.5294 82.8965C27.547 83.1883 27.5691 83.5199 27.5957 83.8912C27.799 83.9089 28.0024 83.931 28.2057 83.9575C28.4179 83.9752 28.6434 84.0062 28.8821 84.0504L28.3914 85.5092C28.2676 85.465 28.1571 85.4296 28.0599 85.4031C27.9626 85.3678 27.8432 85.3324 27.7018 85.297C27.7548 85.7479 27.8211 86.2033 27.9007 86.663C27.9803 87.1228 28.0687 87.5914 28.166 88.0689L26.5479 88.3341C26.5037 87.8743 26.4684 87.4278 26.4418 86.9946C26.4242 86.5525 26.4153 86.1193 26.4153 85.6949C26.4153 85.5446 26.4109 85.4296 26.4021 85.3501C26.4021 85.2617 26.4065 85.1423 26.4153 84.992C26.0174 84.9124 25.6284 84.8594 25.2482 84.8328C24.8769 84.8063 24.5497 84.7842 24.2668 84.7665C24.1961 84.7665 24.1032 84.7665 23.9883 84.7665C23.8822 84.7577 23.7938 84.7533 23.7231 84.7533C23.6346 84.7533 23.5816 84.7577 23.5639 84.7665C23.5462 84.7665 23.4932 84.7665 23.4048 84.7665C23.449 85.244 23.5064 85.7391 23.5772 86.2519C23.6479 86.7647 23.7319 87.3262 23.8292 87.9362L22.3173 88.5596C22.22 88.0114 22.1537 87.4632 22.1183 86.915C22.083 86.3669 22.0608 85.7612 22.052 85.0981V84.8328ZM35.1377 88.3208C35.0935 87.8346 35.0581 87.3306 35.0316 86.8089C35.0051 86.2784 34.9918 85.7435 34.9918 85.2042C34.9918 84.3731 35.0404 83.5331 35.1377 82.6843C35.235 81.8267 35.4251 80.9691 35.708 80.1114L36.0661 80.191C36.0572 80.3325 36.0528 80.4828 36.0528 80.6419C36.0528 80.7922 36.0528 80.9514 36.0528 81.1194C36.0528 81.977 36.1059 82.9982 36.212 84.183C36.3181 85.3589 36.517 86.6586 36.8088 88.0821L35.1377 88.3208ZM49.5768 82.2997C49.0463 82.1317 48.5335 81.9991 48.0384 81.9019C47.5521 81.8046 47.0702 81.7206 46.5928 81.6499C46.6635 82.0477 46.721 82.4545 46.7652 82.87C46.8094 83.2856 46.8447 83.6967 46.8713 84.1034C46.8978 84.5101 46.9155 84.908 46.9243 85.297C46.9332 85.6772 46.9376 86.0353 46.9376 86.3713C46.9376 86.6454 46.9332 86.9239 46.9243 87.2068C46.9243 87.4897 46.9199 87.7196 46.9111 87.8964L44.7625 88.5994C44.9394 88.007 45.0853 87.4013 45.2002 86.7824C45.324 86.1547 45.4212 85.5402 45.492 84.9389C45.5716 84.3289 45.629 83.7365 45.6644 83.1618C45.6998 82.5871 45.7263 82.0477 45.744 81.5438C45.2842 81.4996 44.8465 81.4642 44.431 81.4377C44.0243 81.4112 43.6706 81.3891 43.37 81.3714C43.2816 81.3714 43.1799 81.3669 43.065 81.3581C42.9589 81.3493 42.8705 81.3448 42.7997 81.3448L42.7467 80.9735C43.3125 80.8232 43.843 80.6994 44.3382 80.6022C44.8421 80.5049 45.3196 80.4297 45.7705 80.3767C45.7793 80.2529 45.7793 80.1424 45.7705 80.0451C45.7705 79.9479 45.7705 79.8506 45.7705 79.7534L46.1153 79.687C46.1684 79.8197 46.2126 79.9435 46.2479 80.0584C46.2833 80.1645 46.3098 80.2573 46.3275 80.3369C46.4601 80.3281 46.5928 80.3236 46.7254 80.3236C46.858 80.3148 46.9862 80.3104 47.11 80.3104C47.5167 80.3104 47.9146 80.3325 48.3036 80.3767C48.6926 80.4209 49.0861 80.4828 49.4839 80.5624L49.5768 82.2997ZM55.3856 88.4269L55.5182 87.6975C55.6066 87.3173 55.6995 86.9195 55.7967 86.5039C55.9028 86.0795 56.0089 85.6993 56.115 85.3633C55.779 85.2838 55.4607 85.1688 55.1601 85.0185L55.2928 84.6472C55.505 84.7002 55.6862 84.74 55.8365 84.7665C55.9957 84.7842 56.1592 84.7975 56.3272 84.8063C56.4687 84.4792 56.619 84.1432 56.7781 83.7984C56.9461 83.4447 57.1141 83.1043 57.2821 82.7772C57.4501 82.4412 57.6181 82.1229 57.7861 81.8223C57.9629 81.5128 58.1397 81.2387 58.3166 81C58.2193 80.7701 58.1397 80.5933 58.0779 80.4695C58.016 80.3369 57.9629 80.222 57.9187 80.1247L57.932 80.138C57.8701 80.0407 57.8259 79.9523 57.7993 79.8727L58.1176 79.6605C58.2149 79.7843 58.2945 79.8816 58.3564 79.9523C58.4183 80.023 58.4801 80.0893 58.542 80.1512L58.794 80.4165C58.8648 80.3281 58.9266 80.2573 58.9797 80.2043C59.0416 80.1424 59.1079 80.0761 59.1786 80.0053C59.2317 79.9523 59.2891 79.8992 59.351 79.8462C59.4218 79.7843 59.4837 79.718 59.5367 79.6473L59.8285 79.886L59.7091 80.1114C59.6119 80.2618 59.5279 80.3988 59.4571 80.5226C59.3864 80.6375 59.3024 80.7967 59.2052 81C59.4439 81.3891 59.6738 81.8179 59.8948 82.2865C60.1247 82.7462 60.328 83.1795 60.5049 83.5862C60.5668 83.7365 60.611 83.8514 60.6375 83.931C60.6729 84.0106 60.7215 84.1123 60.7834 84.236C61.0221 84.1918 61.2652 84.1476 61.5128 84.1034C61.7692 84.0592 62.0831 84.0238 62.4544 83.9973L61.7781 85.4694L61.3537 85.496C61.4774 85.8585 61.5791 86.221 61.6587 86.5835C61.7383 86.946 61.8002 87.2333 61.8444 87.4455L61.9239 87.8169L60.2927 88.6524C60.2308 88.175 60.1556 87.6533 60.0672 87.0874C59.9788 86.5216 59.8771 85.9999 59.7622 85.5225C59.5677 85.5313 59.3422 85.5402 59.0858 85.549C58.8294 85.549 58.5995 85.549 58.3962 85.549C58.2193 85.549 58.0734 85.549 57.9585 85.549C57.8436 85.549 57.7198 85.5446 57.5871 85.5357C57.5429 85.7391 57.4987 85.9601 57.4545 86.1989C57.4192 86.4376 57.3838 86.6807 57.3484 86.9283C57.3131 87.1759 57.2777 87.4234 57.2423 87.671C57.2158 87.9097 57.1893 88.1263 57.1628 88.3208L55.3856 88.4269ZM59.4704 84.4748C59.3643 84.068 59.2449 83.6569 59.1123 83.2414C58.9797 82.817 58.8515 82.4279 58.7277 82.0743C58.5597 82.4721 58.3917 82.9054 58.2237 83.374C58.0558 83.8426 57.9099 84.2935 57.7861 84.7267C58.069 84.6914 58.3519 84.6516 58.6349 84.6074C58.9266 84.5632 59.2052 84.519 59.4704 84.4748ZM70.9613 84.6339C70.7845 84.8815 70.6032 85.1158 70.4175 85.3368C70.2319 85.5579 70.0374 85.7745 69.834 85.9867C69.887 86.2608 69.9489 86.5614 70.0197 86.8885C70.0992 87.2156 70.1832 87.5516 70.2717 87.8964C70.1744 87.9672 69.9799 88.0512 69.6881 88.1484C69.3963 88.2368 69.0117 88.3385 68.5343 88.4535L68.4812 87.2068L68.269 87.366L68.0171 87.0609C68.132 86.9283 68.2381 86.7957 68.3354 86.663L68.4547 86.5437C68.4459 86.3315 68.437 86.1193 68.4282 85.9071C68.4282 85.6949 68.4282 85.4739 68.4282 85.244C68.4282 84.4924 68.4636 83.6879 68.5343 82.8302C68.6139 81.9638 68.7642 81 68.9852 79.939L69.3566 79.9788C69.3566 80.3148 69.3566 80.6154 69.3566 80.8807C69.3654 81.1371 69.3742 81.3802 69.3831 81.6101C69.3919 81.8311 69.4008 82.0477 69.4096 82.2599C69.4184 82.4721 69.4317 82.702 69.4494 82.9496C69.4582 83.0911 69.4627 83.2237 69.4627 83.3475C69.4715 83.4624 69.4803 83.5906 69.4892 83.7321C69.5069 83.8735 69.529 84.0371 69.5555 84.2228C69.582 84.3996 69.6174 84.6162 69.6616 84.8726C69.7854 84.687 69.9003 84.5013 70.0064 84.3156C70.1214 84.1211 70.2363 83.9222 70.3512 83.7188C70.2805 83.6215 70.2098 83.5331 70.139 83.4536C70.0771 83.3651 70.0153 83.2811 69.9534 83.2016L69.834 83.0159L70.0595 82.8037C70.1744 82.8744 70.2717 82.9363 70.3512 82.9894C70.4396 83.0336 70.5413 83.0999 70.6563 83.1883C70.9127 82.7285 71.1293 82.2776 71.3061 81.8356C71.483 81.3846 71.6465 80.9337 71.7968 80.4828C71.9206 80.4563 72.0665 80.4253 72.2345 80.39C72.4113 80.3457 72.5881 80.3015 72.765 80.2573C72.9507 80.2131 73.1275 80.1733 73.2955 80.138C73.4723 80.0938 73.6226 80.054 73.7464 80.0186C73.5254 80.4961 73.3132 80.9293 73.1098 81.3183C72.9153 81.6985 72.7252 82.0477 72.5395 82.366C72.3538 82.6755 72.1726 82.9584 71.9958 83.2148C71.8278 83.4712 71.6642 83.71 71.5051 83.931C72.1063 84.488 72.6368 85.0981 73.0965 85.7612C73.5563 86.4155 73.9763 87.1272 74.3565 87.8964C74.2504 87.9495 74.1222 88.0114 73.9719 88.0821C73.8215 88.144 73.6668 88.2103 73.5077 88.2811C73.3574 88.3518 73.2071 88.4225 73.0568 88.4933C72.9064 88.5551 72.7738 88.6082 72.6589 88.6524C72.4378 87.7859 72.177 87.0256 71.8764 86.3713C71.5758 85.717 71.2708 85.1379 70.9613 84.6339ZM80.281 88.4269L80.4136 87.6975C80.502 87.3173 80.5949 86.9195 80.6921 86.5039C80.7982 86.0795 80.9043 85.6993 81.0104 85.3633C80.6745 85.2838 80.3562 85.1688 80.0555 85.0185L80.1882 84.6472C80.4004 84.7002 80.5816 84.74 80.7319 84.7665C80.8911 84.7842 81.0546 84.7975 81.2226 84.8063C81.3641 84.4792 81.5144 84.1432 81.6736 83.7984C81.8415 83.4447 82.0095 83.1043 82.1775 82.7772C82.3455 82.4412 82.5135 82.1229 82.6815 81.8223C82.8583 81.5128 83.0352 81.2387 83.212 81C83.1147 80.7701 83.0352 80.5933 82.9733 80.4695C82.9114 80.3369 82.8583 80.222 82.8141 80.1247L82.8274 80.138C82.7655 80.0407 82.7213 79.9523 82.6948 79.8727L83.0131 79.6605C83.1103 79.7843 83.1899 79.8816 83.2518 79.9523C83.3137 80.023 83.3756 80.0893 83.4374 80.1512L83.6894 80.4165C83.7602 80.3281 83.8221 80.2573 83.8751 80.2043C83.937 80.1424 84.0033 80.0761 84.074 80.0053C84.1271 79.9523 84.1846 79.8992 84.2465 79.8462C84.3172 79.7843 84.3791 79.718 84.4321 79.6473L84.7239 79.886L84.6045 80.1114C84.5073 80.2618 84.4233 80.3988 84.3526 80.5226C84.2818 80.6375 84.1978 80.7967 84.1006 81C84.3393 81.3891 84.5692 81.8179 84.7902 82.2865C85.0201 82.7462 85.2234 83.1795 85.4003 83.5862C85.4622 83.7365 85.5064 83.8514 85.5329 83.931C85.5683 84.0106 85.6169 84.1123 85.6788 84.236C85.9175 84.1918 86.1607 84.1476 86.4082 84.1034C86.6646 84.0592 86.9785 84.0238 87.3498 83.9973L86.6735 85.4694L86.2491 85.496C86.3729 85.8585 86.4745 86.221 86.5541 86.5835C86.6337 86.946 86.6956 87.2333 86.7398 87.4455L86.8194 87.8169L85.1881 88.6524C85.1262 88.175 85.051 87.6533 84.9626 87.0874C84.8742 86.5216 84.7725 85.9999 84.6576 85.5225C84.4631 85.5313 84.2376 85.5402 83.9812 85.549C83.7248 85.549 83.4949 85.549 83.2916 85.549C83.1147 85.549 82.9688 85.549 82.8539 85.549C82.739 85.549 82.6152 85.5446 82.4826 85.5357C82.4384 85.7391 82.3941 85.9601 82.3499 86.1989C82.3146 86.4376 82.2792 86.6807 82.2438 86.9283C82.2085 87.1759 82.1731 87.4234 82.1377 87.671C82.1112 87.9097 82.0847 88.1263 82.0582 88.3208L80.281 88.4269ZM84.3658 84.4748C84.2597 84.068 84.1404 83.6569 84.0077 83.2414C83.8751 82.817 83.7469 82.4279 83.6231 82.0743C83.4551 82.4721 83.2871 82.9054 83.1192 83.374C82.9512 83.8426 82.8053 84.2935 82.6815 84.7267C82.9644 84.6914 83.2474 84.6516 83.5303 84.6074C83.8221 84.5632 84.1006 84.519 84.3658 84.4748Z" fill="#222222"/>
<path d="M49.1074 90.8836C48.9714 90.6537 48.7512 90.5307 48.4468 90.5145C48.0453 90.5404 47.8494 90.746 47.8592 91.1313C47.9239 91.3612 48.0648 91.5247 48.2817 91.6219C48.5019 91.7158 48.7253 91.8161 48.9519 91.923C49.1948 92.0849 49.3162 92.3115 49.3162 92.6029C49.3065 92.8814 49.1964 93.0821 48.9859 93.2052C48.7755 93.3282 48.5537 93.3897 48.3205 93.3897C47.987 93.325 47.7572 93.1518 47.6309 92.8701C47.66 92.76 47.7183 92.7341 47.8057 92.7924C47.9061 93.0093 48.0842 93.1437 48.34 93.1955C48.5278 93.1955 48.7026 93.1469 48.8645 93.0498C49.0264 92.9526 49.1122 92.8037 49.1219 92.6029C49.1219 92.3828 49.0329 92.2112 48.8548 92.0881C48.6411 91.9877 48.4096 91.8857 48.1603 91.7821C47.9142 91.6753 47.7491 91.4681 47.6649 91.1605C47.6552 90.6327 47.9158 90.3526 48.4468 90.3202C48.8289 90.3429 49.1041 90.4983 49.2725 90.7865C49.2563 90.8966 49.2013 90.929 49.1074 90.8836ZM50.7946 90.4125C50.7784 91.6688 50.8043 92.4427 50.8723 92.7341C50.9436 93.0222 51.1637 93.1955 51.5329 93.2537C51.9279 93.1534 52.1383 92.9721 52.1642 92.7098C52.1901 92.4443 52.1982 91.6785 52.1885 90.4125C52.2565 90.2668 52.3213 90.2668 52.3828 90.4125C52.3925 91.685 52.3828 92.4799 52.3537 92.7972C52.3245 93.1113 52.0509 93.3282 51.5329 93.448C51.0601 93.3768 50.7817 93.1728 50.6975 92.8361C50.6165 92.4961 50.5777 91.6899 50.5809 90.4174C50.6521 90.2976 50.7234 90.2959 50.7946 90.4125ZM55.0754 90.8836C54.9394 90.6537 54.7192 90.5307 54.4149 90.5145C54.0134 90.5404 53.8175 90.746 53.8272 91.1313C53.892 91.3612 54.0328 91.5247 54.2498 91.6219C54.4699 91.7158 54.6933 91.8161 54.92 91.923C55.1628 92.0849 55.2843 92.3115 55.2843 92.6029C55.2745 92.8814 55.1645 93.0821 54.954 93.2052C54.7435 93.3282 54.5217 93.3897 54.2886 93.3897C53.9551 93.325 53.7252 93.1518 53.5989 92.8701C53.6281 92.76 53.6864 92.7341 53.7738 92.7924C53.8742 93.0093 54.0522 93.1437 54.308 93.1955C54.4958 93.1955 54.6707 93.1469 54.8326 93.0498C54.9945 92.9526 55.0803 92.8037 55.09 92.6029C55.09 92.3828 55.0009 92.2112 54.8229 92.0881C54.6092 91.9877 54.3777 91.8857 54.1283 91.7821C53.8823 91.6753 53.7171 91.4681 53.6329 91.1605C53.6232 90.6327 53.8839 90.3526 54.4149 90.3202C54.797 90.3429 55.0722 90.4983 55.2405 90.7865C55.2244 90.8966 55.1693 90.929 55.0754 90.8836ZM56.8404 90.3008L56.8647 91.4907L58.0449 91.4422L58.0254 90.3008C58.074 90.1778 58.1388 90.1842 58.2197 90.3202L58.2634 93.2635C58.1857 93.4351 58.121 93.4383 58.0692 93.2732L58.0546 91.6364L56.8744 91.685L56.8841 93.244C56.8291 93.3703 56.7643 93.3736 56.6898 93.2537L56.6461 90.2814C56.7109 90.1551 56.7756 90.1616 56.8404 90.3008ZM59.7176 90.2717L61.1212 90.3542C61.2151 90.3996 61.2151 90.4643 61.1212 90.5485L60.5724 90.5291C60.6306 91.141 60.6582 91.6461 60.6549 92.0444C60.6549 92.4427 60.6404 92.7794 60.6112 93.0546L61.1989 93.074C61.2928 93.1323 61.2928 93.1971 61.1989 93.2683L59.7758 93.1858C59.6463 93.1242 59.6528 93.0595 59.7953 92.9915L60.4121 93.04C60.4445 92.7681 60.4607 92.4346 60.4607 92.0395C60.4639 91.6413 60.4348 91.1346 60.3732 90.5194L59.6981 90.4659C59.588 90.3915 59.5945 90.3267 59.7176 90.2717Z" fill="#555555"/>
</svg>
